<?xml version="1.0" standalone="no"?><!DOCTYPE svg PUBLIC "-//W3C//DTD SVG 1.1//EN" "http://www.w3.org/Graphics/SVG/1.1/DTD/svg11.dtd"><svg class="icon" height="512" viewBox="0 0 1024 1024" version="1.1" xmlns="http://www.w3.org/2000/svg"><path d="M743.68 372.672L513.408 490.88 283.136 346.048 505.6 230.912l238.08 141.76z m-489.28 291.2l235.968 141.888V527.744l-235.968-142.08v278.208z m284.864 140.608l230.336-118.4V408.064L539.264 526.4v278.08zM1011.264 512a499.2 499.2 0 0 1-499.328 499.2A499.2 499.2 0 0 1 12.736 512a499.2 499.2 0 0 1 499.2-499.2A499.2 499.2 0 0 1 1011.264 512z m-64 12.736a435.2 435.2 0 0 0-435.328-435.2 435.2 435.2 0 0 0-435.2 435.2c0 240.448 194.816 435.2 435.2 435.2a435.2 435.2 0 0 0 435.328-435.2z" /></svg>